<?xml version="1.0" encoding="utf-8"?>
<!-- Generator: Adobe Illustrator 17.0.0, SVG Export Plug-In . SVG Version: 6.00 Build 0)  -->
<!DOCTYPE svg PUBLIC "-//W3C//DTD SVG 1.1//EN" "http://www.w3.org/Graphics/SVG/1.1/DTD/svg11.dtd">
<svg version="1.1" id="Layer_1" xmlns="http://www.w3.org/2000/svg" xmlns:xlink="http://www.w3.org/1999/xlink" x="0px" y="0px"
	 width="50px" height="50px" viewBox="0 0 50 50" enable-background="new 0 0 50 50" xml:space="preserve">
<g>
	<path fill="#FFA64D" d="M22.198,23.946c0.001-0.24,0.003-0.487,0.003-0.746c0-1.12-0.094-2.083-0.254-2.933h-3.783
		C15.597,28.601,6.52,31.778,3.867,32.54l-0.084,0.092c0.051,0.646,0.084,1.375,0.084,2.302h9.963
		C17.357,32.818,21.11,29.36,22.198,23.946L22.198,23.946z M22.198,23.946"/>
	<path fill="#FFA64D" d="M46.401,29.067c-2.2,11-15.4,13.934-15.4,13.934h-3.667v-5.134c0,0,13.2-2.933,15.4-13.933h3.667V29.067z
		 M46.401,29.067"/>
	<path fill="#333333" d="M22.2,34.934c0-1.874,0.135-2.918,0.292-4.129c0.207-1.605,0.442-3.425,0.442-7.605
		c0-5.134-1.9-7.348-3.576-9.302c-1.352-1.576-2.639-3.078-2.951-6.098H17.8V6.333h-1.467V4.867c0-1.213-0.987-2.2-2.2-2.2H11.2
		c-1.213,0-2.2,0.987-2.2,2.2v1.467H7.533V7.8h1.393c-0.313,3.02-1.599,4.523-2.951,6.098C4.3,15.852,2.4,18.067,2.4,23.2
		c0,4.179,0.235,6,0.442,7.605c0.157,1.211,0.292,2.255,0.292,4.129c0,1.62-0.295,2.431-0.639,3.369
		c-0.388,1.063-0.828,2.267-0.828,4.697v1.1c0,2.223,1.81,4.033,4.033,4.033c1.42,0,2.668-0.739,3.387-1.851
		c0.799,1.118,2.104,1.851,3.58,1.851s2.781-0.733,3.58-1.851c0.718,1.112,1.967,1.851,3.387,1.851c2.223,0,4.033-1.81,4.033-4.033
		v-1.1c0-2.43-0.44-3.635-0.828-4.697C22.496,37.365,22.2,36.554,22.2,34.934L22.2,34.934z M21.467,23.2
		c0,4.085-0.229,5.855-0.431,7.417c-0.135,1.049-0.264,2.049-0.295,3.583H4.593c-0.031-1.534-0.161-2.534-0.295-3.583
		c-0.202-1.562-0.431-3.332-0.431-7.417c0-0.817,0.051-1.542,0.142-2.2h17.316C21.416,21.658,21.467,22.383,21.467,23.2L21.467,23.2
		z M10.467,4.867c0-0.405,0.329-0.733,0.733-0.733h2.934c0.405,0,0.733,0.329,0.733,0.733v1.467h-4.4V4.867z M7.089,14.854
		C8.56,13.139,10.074,11.368,10.4,7.8h4.534c0.326,3.568,1.84,5.339,3.311,7.054c1.123,1.31,2.203,2.572,2.783,4.679H4.306
		C4.886,17.427,5.965,16.164,7.089,14.854L7.089,14.854z M22.2,44.101c0,1.415-1.151,2.566-2.566,2.566
		c-1.415,0-2.567-1.151-2.567-2.566v-1.1H15.6v0.733c0,1.618-1.316,2.934-2.934,2.934s-2.934-1.315-2.934-2.934v-0.733H8.267v1.1
		c0,1.415-1.152,2.566-2.567,2.566c-1.415,0-2.566-1.151-2.566-2.566v-1.1c0-2.171,0.359-3.153,0.739-4.195
		c0.308-0.843,0.623-1.714,0.705-3.139h16.178c0.082,1.424,0.398,2.295,0.705,3.139c0.38,1.041,0.739,2.024,0.739,4.195V44.101z
		 M22.2,44.101"/>
	<path fill="#333333" d="M7.969,18.469c0.219-0.335,0.484-0.684,0.86-1.132l-1.124-0.943c-0.279,0.333-0.641,0.777-0.963,1.271
		L7.969,18.469z M7.969,18.469"/>
	<path fill="#333333" d="M13.146,9.395l-1.444-0.257c-0.531,2.994-1.845,4.731-3.26,6.39l1.115,0.953
		C11.047,14.734,12.552,12.748,13.146,9.395L13.146,9.395z M13.146,9.395"/>
	<path fill="#333333" d="M45.885,21.539c-0.405-0.333-0.744-0.615-0.882-1.272h1.398V18.8H27.334v1.467h1.398
		c-0.138,0.657-0.477,0.94-0.882,1.272c-0.556,0.458-1.249,1.027-1.249,2.395v22h0.733c0.808,0,1.467,0.657,1.467,1.466v0.734
		h16.134v-0.734c0-0.809,0.658-1.466,1.466-1.466h0.734v-22C47.134,22.566,46.441,21.997,45.885,21.539L45.885,21.539z
		 M45.667,24.667v17.601H28.067V24.667H45.667z M28.781,22.673c0.54-0.444,1.247-1.032,1.435-2.406h13.302
		c0.189,1.374,0.896,1.963,1.435,2.406c0.239,0.197,0.418,0.343,0.538,0.527H28.244C28.363,23.017,28.541,22.87,28.781,22.673
		L28.781,22.673z M43.561,46.668H30.174c-0.266-1.029-1.078-1.841-2.107-2.107v-0.827h17.601v0.827
		C44.639,44.826,43.826,45.639,43.561,46.668L43.561,46.668z M43.561,46.668"/>
</g>
</svg>
